<mxfile host="65bd71144e">
    <diagram id="lANwVkkE72qUTDC06Vc4" name="ページ1">
        <mxGraphModel dx="1060" dy="852" grid="1" gridSize="10" guides="1" tooltips="1" connect="1" arrows="1" fold="1" page="1" pageScale="1" pageWidth="827" pageHeight="1169" math="0" shadow="0">
            <root>
                <mxCell id="0"/>
                <mxCell id="1" parent="0"/>
                <mxCell id="2" value="登録情報" style="swimlane;fontStyle=0;childLayout=stackLayout;horizontal=1;startSize=30;horizontalStack=0;resizeParent=1;resizeParentMax=0;resizeLast=0;collapsible=1;marginBottom=0;" vertex="1" parent="1">
                    <mxGeometry y="200" width="140" height="60" as="geometry"/>
                </mxCell>
                <mxCell id="3" value="Githubアカウント" style="text;strokeColor=none;fillColor=none;align=left;verticalAlign=middle;spacingLeft=4;spacingRight=4;overflow=hidden;points=[[0,0.5],[1,0.5]];portConstraint=eastwest;rotatable=0;" vertex="1" parent="2">
                    <mxGeometry y="30" width="140" height="30" as="geometry"/>
                </mxCell>
                <mxCell id="11" style="edgeStyle=none;html=1;exitX=0.5;exitY=0;exitDx=0;exitDy=0;exitPerimeter=0;entryX=0.5;entryY=1;entryDx=0;entryDy=0;" edge="1" parent="1" source="6" target="2">
                    <mxGeometry relative="1" as="geometry"/>
                </mxCell>
                <mxCell id="36" style="edgeStyle=none;html=1;entryX=0;entryY=0.5;entryDx=0;entryDy=0;startArrow=diamond;startFill=0;" edge="1" parent="1" source="6" target="16">
                    <mxGeometry relative="1" as="geometry"/>
                </mxCell>
                <mxCell id="38" style="edgeStyle=none;html=1;entryX=-0.026;entryY=0.09;entryDx=0;entryDy=0;entryPerimeter=0;startArrow=diamondThin;startFill=0;" edge="1" parent="1" source="6" target="25">
                    <mxGeometry relative="1" as="geometry"/>
                </mxCell>
                <mxCell id="40" style="edgeStyle=none;html=1;entryX=0;entryY=0.5;entryDx=0;entryDy=0;startArrow=diamondThin;startFill=0;" edge="1" parent="1" source="6" target="26">
                    <mxGeometry relative="1" as="geometry"/>
                </mxCell>
                <mxCell id="41" style="edgeStyle=none;html=1;entryX=-0.041;entryY=0.09;entryDx=0;entryDy=0;entryPerimeter=0;endArrow=none;endFill=0;" edge="1" parent="1" source="6" target="21">
                    <mxGeometry relative="1" as="geometry"/>
                </mxCell>
                <mxCell id="42" style="edgeStyle=none;html=1;entryX=-0.052;entryY=-0.013;entryDx=0;entryDy=0;entryPerimeter=0;endArrow=none;endFill=0;" edge="1" parent="1" source="6" target="29">
                    <mxGeometry relative="1" as="geometry"/>
                </mxCell>
                <mxCell id="6" value="Actor" style="shape=umlActor;verticalLabelPosition=bottom;verticalAlign=top;html=1;outlineConnect=0;" vertex="1" parent="1">
                    <mxGeometry x="55" y="320" width="30" height="60" as="geometry"/>
                </mxCell>
                <mxCell id="16" value="ユーザ" style="swimlane;fontStyle=0;childLayout=stackLayout;horizontal=1;startSize=30;horizontalStack=0;resizeParent=1;resizeParentMax=0;resizeLast=0;collapsible=1;marginBottom=0;" vertex="1" parent="1">
                    <mxGeometry x="280" y="300" width="140" height="60" as="geometry"/>
                </mxCell>
                <mxCell id="17" value="ユーザ情報" style="text;strokeColor=none;fillColor=none;align=left;verticalAlign=middle;spacingLeft=4;spacingRight=4;overflow=hidden;points=[[0,0.5],[1,0.5]];portConstraint=eastwest;rotatable=0;" vertex="1" parent="16">
                    <mxGeometry y="30" width="140" height="30" as="geometry"/>
                </mxCell>
                <mxCell id="20" value="マイページ" style="swimlane;fontStyle=0;childLayout=stackLayout;horizontal=1;startSize=30;horizontalStack=0;resizeParent=1;resizeParentMax=0;resizeLast=0;collapsible=1;marginBottom=0;" vertex="1" parent="1">
                    <mxGeometry x="280" y="380" width="140" height="60" as="geometry"/>
                </mxCell>
                <mxCell id="21" value="アクター情報" style="text;strokeColor=none;fillColor=none;align=left;verticalAlign=middle;spacingLeft=4;spacingRight=4;overflow=hidden;points=[[0,0.5],[1,0.5]];portConstraint=eastwest;rotatable=0;" vertex="1" parent="20">
                    <mxGeometry y="30" width="140" height="30" as="geometry"/>
                </mxCell>
                <mxCell id="24" value="ランキング" style="swimlane;fontStyle=0;childLayout=stackLayout;horizontal=1;startSize=30;horizontalStack=0;resizeParent=1;resizeParentMax=0;resizeLast=0;collapsible=1;marginBottom=0;" vertex="1" parent="1">
                    <mxGeometry x="280" y="140" width="220" height="60" as="geometry"/>
                </mxCell>
                <mxCell id="25" value="アクターが作成した技術記事トップ10" style="text;strokeColor=none;fillColor=none;align=left;verticalAlign=middle;spacingLeft=4;spacingRight=4;overflow=hidden;points=[[0,0.5],[1,0.5]];portConstraint=eastwest;rotatable=0;" vertex="1" parent="24">
                    <mxGeometry y="30" width="220" height="30" as="geometry"/>
                </mxCell>
                <mxCell id="26" value="記事メモ" style="swimlane;fontStyle=0;childLayout=stackLayout;horizontal=1;startSize=30;horizontalStack=0;resizeParent=1;resizeParentMax=0;resizeLast=0;collapsible=1;marginBottom=0;" vertex="1" parent="1">
                    <mxGeometry x="280" y="220" width="290" height="60" as="geometry"/>
                </mxCell>
                <mxCell id="27" value="アクターが作成した技術記事にメモを付随したもの" style="text;strokeColor=none;fillColor=none;align=left;verticalAlign=middle;spacingLeft=4;spacingRight=4;overflow=hidden;points=[[0,0.5],[1,0.5]];portConstraint=eastwest;rotatable=0;" vertex="1" parent="26">
                    <mxGeometry y="30" width="290" height="30" as="geometry"/>
                </mxCell>
                <mxCell id="28" value="一覧" style="swimlane;fontStyle=0;childLayout=stackLayout;horizontal=1;startSize=30;horizontalStack=0;resizeParent=1;resizeParentMax=0;resizeLast=0;collapsible=1;marginBottom=0;" vertex="1" parent="1">
                    <mxGeometry x="280" y="460" width="140" height="60" as="geometry"/>
                </mxCell>
                <mxCell id="29" value="一覧表示" style="text;strokeColor=none;fillColor=none;align=left;verticalAlign=middle;spacingLeft=4;spacingRight=4;overflow=hidden;points=[[0,0.5],[1,0.5]];portConstraint=eastwest;rotatable=0;" vertex="1" parent="28">
                    <mxGeometry y="30" width="140" height="30" as="geometry"/>
                </mxCell>
                <mxCell id="43" value="1" style="text;html=1;strokeColor=none;fillColor=none;align=center;verticalAlign=middle;whiteSpace=wrap;rounded=0;" vertex="1" parent="1">
                    <mxGeometry x="80" y="280" width="60" height="30" as="geometry"/>
                </mxCell>
                <mxCell id="44" value="1" style="text;html=1;strokeColor=none;fillColor=none;align=center;verticalAlign=middle;whiteSpace=wrap;rounded=0;" vertex="1" parent="1">
                    <mxGeometry x="110" y="290" width="60" height="30" as="geometry"/>
                </mxCell>
                <mxCell id="45" value="1" style="text;html=1;strokeColor=none;fillColor=none;align=center;verticalAlign=middle;whiteSpace=wrap;rounded=0;" vertex="1" parent="1">
                    <mxGeometry x="100" y="320" width="60" height="30" as="geometry"/>
                </mxCell>
                <mxCell id="46" value="記事1(全く意味がわからない)&lt;br&gt;https://www.eureka-moments-blog.com/entry/2018/12/29/145802" style="text;html=1;strokeColor=none;fillColor=none;align=center;verticalAlign=middle;whiteSpace=wrap;rounded=0;" vertex="1" parent="1">
                    <mxGeometry x="27.5" y="50" width="422.5" height="30" as="geometry"/>
                </mxCell>
                <mxCell id="47" value="記事2&lt;br&gt;https://little-hands.hatenablog.com/entry/2022/06/01/ddd-modeling" style="text;html=1;strokeColor=none;fillColor=none;align=center;verticalAlign=middle;whiteSpace=wrap;rounded=0;" vertex="1" parent="1">
                    <mxGeometry x="870" y="30" width="380" height="30" as="geometry"/>
                </mxCell>
                <mxCell id="48" value="" style="rounded=0;whiteSpace=wrap;html=1;" vertex="1" parent="1">
                    <mxGeometry x="840" y="340" width="170" height="140" as="geometry"/>
                </mxCell>
                <mxCell id="49" value="ログイン集約" style="text;html=1;strokeColor=none;fillColor=none;align=center;verticalAlign=middle;whiteSpace=wrap;rounded=0;" vertex="1" parent="1">
                    <mxGeometry x="887.5" y="340" width="75" height="30" as="geometry"/>
                </mxCell>
                <mxCell id="53" value="" style="rounded=0;whiteSpace=wrap;html=1;" vertex="1" parent="1">
                    <mxGeometry x="1080" y="160" width="540" height="700" as="geometry"/>
                </mxCell>
                <mxCell id="54" value="一覧集約" style="text;html=1;strokeColor=none;fillColor=none;align=center;verticalAlign=middle;whiteSpace=wrap;rounded=0;" vertex="1" parent="1">
                    <mxGeometry x="1282.5" y="160" width="75" height="30" as="geometry"/>
                </mxCell>
                <mxCell id="84" style="edgeStyle=none;html=1;entryX=0;entryY=0.5;entryDx=0;entryDy=0;startArrow=diamondThin;startFill=0;endArrow=open;endFill=0;strokeColor=none;" edge="1" parent="1" source="58" target="69">
                    <mxGeometry relative="1" as="geometry"/>
                </mxCell>
                <mxCell id="85" style="edgeStyle=none;html=1;entryX=0;entryY=0.5;entryDx=0;entryDy=0;startArrow=diamondThin;startFill=0;endArrow=open;endFill=0;" edge="1" parent="1" source="58" target="69">
                    <mxGeometry relative="1" as="geometry"/>
                </mxCell>
                <mxCell id="88" style="edgeStyle=none;html=1;entryX=0;entryY=0.5;entryDx=0;entryDy=0;startArrow=none;startFill=0;endArrow=open;endFill=0;" edge="1" parent="1" source="58" target="81">
                    <mxGeometry relative="1" as="geometry"/>
                </mxCell>
                <mxCell id="111" style="edgeStyle=none;html=1;entryX=0.5;entryY=0;entryDx=0;entryDy=0;startArrow=none;startFill=0;endArrow=none;endFill=0;" edge="1" parent="1" source="58" target="105">
                    <mxGeometry relative="1" as="geometry"/>
                </mxCell>
                <mxCell id="58" value="ランキング" style="swimlane;fontStyle=0;childLayout=stackLayout;horizontal=1;startSize=30;horizontalStack=0;resizeParent=1;resizeParentMax=0;resizeLast=0;collapsible=1;marginBottom=0;" vertex="1" parent="1">
                    <mxGeometry x="1130" y="200" width="170" height="240" as="geometry"/>
                </mxCell>
                <mxCell id="59" value="ランキング名(string)" style="text;strokeColor=none;fillColor=none;align=left;verticalAlign=middle;spacingLeft=4;spacingRight=4;overflow=hidden;points=[[0,0.5],[1,0.5]];portConstraint=eastwest;rotatable=0;" vertex="1" parent="58">
                    <mxGeometry y="30" width="170" height="30" as="geometry"/>
                </mxCell>
                <mxCell id="60" value="ランキング説明(string)" style="text;strokeColor=none;fillColor=none;align=left;verticalAlign=middle;spacingLeft=4;spacingRight=4;overflow=hidden;points=[[0,0.5],[1,0.5]];portConstraint=eastwest;rotatable=0;" vertex="1" parent="58">
                    <mxGeometry y="60" width="170" height="30" as="geometry"/>
                </mxCell>
                <mxCell id="61" value="ランキング情報" style="text;strokeColor=none;fillColor=none;align=left;verticalAlign=middle;spacingLeft=4;spacingRight=4;overflow=hidden;points=[[0,0.5],[1,0.5]];portConstraint=eastwest;rotatable=0;" vertex="1" parent="58">
                    <mxGeometry y="90" width="170" height="30" as="geometry"/>
                </mxCell>
                <mxCell id="67" value="表示、非表示情報(boolean)" style="text;strokeColor=none;fillColor=none;align=left;verticalAlign=middle;spacingLeft=4;spacingRight=4;overflow=hidden;points=[[0,0.5],[1,0.5]];portConstraint=eastwest;rotatable=0;" vertex="1" parent="58">
                    <mxGeometry y="120" width="170" height="30" as="geometry"/>
                </mxCell>
                <mxCell id="66" value="投稿日時(datetime)" style="text;strokeColor=none;fillColor=none;align=left;verticalAlign=middle;spacingLeft=4;spacingRight=4;overflow=hidden;points=[[0,0.5],[1,0.5]];portConstraint=eastwest;rotatable=0;" vertex="1" parent="58">
                    <mxGeometry y="150" width="170" height="30" as="geometry"/>
                </mxCell>
                <mxCell id="78" value="カテゴリ" style="text;strokeColor=none;fillColor=none;align=left;verticalAlign=middle;spacingLeft=4;spacingRight=4;overflow=hidden;points=[[0,0.5],[1,0.5]];portConstraint=eastwest;rotatable=0;" vertex="1" parent="58">
                    <mxGeometry y="180" width="170" height="30" as="geometry"/>
                </mxCell>
                <mxCell id="110" value="お気に入り" style="text;strokeColor=none;fillColor=none;align=left;verticalAlign=middle;spacingLeft=4;spacingRight=4;overflow=hidden;points=[[0,0.5],[1,0.5]];portConstraint=eastwest;rotatable=0;" vertex="1" parent="58">
                    <mxGeometry y="210" width="170" height="30" as="geometry"/>
                </mxCell>
                <mxCell id="62" value="アカウント" style="swimlane;fontStyle=0;childLayout=stackLayout;horizontal=1;startSize=30;horizontalStack=0;resizeParent=1;resizeParentMax=0;resizeLast=0;collapsible=1;marginBottom=0;" vertex="1" parent="1">
                    <mxGeometry x="870" y="380" width="110" height="60" as="geometry"/>
                </mxCell>
                <mxCell id="63" value="Githubアカウント" style="text;strokeColor=none;fillColor=none;align=left;verticalAlign=middle;spacingLeft=4;spacingRight=4;overflow=hidden;points=[[0,0.5],[1,0.5]];portConstraint=eastwest;rotatable=0;" vertex="1" parent="62">
                    <mxGeometry y="30" width="110" height="30" as="geometry"/>
                </mxCell>
                <mxCell id="68" value="ランキング情報" style="swimlane;fontStyle=0;childLayout=stackLayout;horizontal=1;startSize=30;horizontalStack=0;resizeParent=1;resizeParentMax=0;resizeLast=0;collapsible=1;marginBottom=0;" vertex="1" parent="1">
                    <mxGeometry x="1367.5" y="200" width="140" height="120" as="geometry"/>
                </mxCell>
                <mxCell id="69" value="順位(number)" style="text;strokeColor=none;fillColor=none;align=left;verticalAlign=middle;spacingLeft=4;spacingRight=4;overflow=hidden;points=[[0,0.5],[1,0.5]];portConstraint=eastwest;rotatable=0;" vertex="1" parent="68">
                    <mxGeometry y="30" width="140" height="30" as="geometry"/>
                </mxCell>
                <mxCell id="70" value="URL(string)" style="text;strokeColor=none;fillColor=none;align=left;verticalAlign=middle;spacingLeft=4;spacingRight=4;overflow=hidden;points=[[0,0.5],[1,0.5]];portConstraint=eastwest;rotatable=0;" vertex="1" parent="68">
                    <mxGeometry y="60" width="140" height="30" as="geometry"/>
                </mxCell>
                <mxCell id="97" value="ランキング説明(string)" style="text;strokeColor=none;fillColor=none;align=left;verticalAlign=middle;spacingLeft=4;spacingRight=4;overflow=hidden;points=[[0,0.5],[1,0.5]];portConstraint=eastwest;rotatable=0;" vertex="1" parent="68">
                    <mxGeometry y="90" width="140" height="30" as="geometry"/>
                </mxCell>
                <mxCell id="94" style="edgeStyle=none;html=1;entryX=-0.032;entryY=0.733;entryDx=0;entryDy=0;entryPerimeter=0;startArrow=none;startFill=0;endArrow=open;endFill=0;" edge="1" parent="1" source="72" target="81">
                    <mxGeometry relative="1" as="geometry"/>
                </mxCell>
                <mxCell id="115" style="edgeStyle=none;html=1;entryX=0.25;entryY=0;entryDx=0;entryDy=0;startArrow=none;startFill=0;endArrow=none;endFill=0;" edge="1" parent="1" source="72" target="105">
                    <mxGeometry relative="1" as="geometry"/>
                </mxCell>
                <mxCell id="72" value="記事メモ" style="swimlane;fontStyle=0;childLayout=stackLayout;horizontal=1;startSize=30;horizontalStack=0;resizeParent=1;resizeParentMax=0;resizeLast=0;collapsible=1;marginBottom=0;" vertex="1" parent="1">
                    <mxGeometry x="1130" y="540" width="170" height="240" as="geometry"/>
                </mxCell>
                <mxCell id="73" value="記事メモ名(string)" style="text;strokeColor=none;fillColor=none;align=left;verticalAlign=middle;spacingLeft=4;spacingRight=4;overflow=hidden;points=[[0,0.5],[1,0.5]];portConstraint=eastwest;rotatable=0;" vertex="1" parent="72">
                    <mxGeometry y="30" width="170" height="30" as="geometry"/>
                </mxCell>
                <mxCell id="74" value="メモ説明(string)" style="text;strokeColor=none;fillColor=none;align=left;verticalAlign=middle;spacingLeft=4;spacingRight=4;overflow=hidden;points=[[0,0.5],[1,0.5]];portConstraint=eastwest;rotatable=0;" vertex="1" parent="72">
                    <mxGeometry y="60" width="170" height="30" as="geometry"/>
                </mxCell>
                <mxCell id="75" value="URL" style="text;strokeColor=none;fillColor=none;align=left;verticalAlign=middle;spacingLeft=4;spacingRight=4;overflow=hidden;points=[[0,0.5],[1,0.5]];portConstraint=eastwest;rotatable=0;" vertex="1" parent="72">
                    <mxGeometry y="90" width="170" height="30" as="geometry"/>
                </mxCell>
                <mxCell id="76" value="表示、非表示情報(boolean)" style="text;strokeColor=none;fillColor=none;align=left;verticalAlign=middle;spacingLeft=4;spacingRight=4;overflow=hidden;points=[[0,0.5],[1,0.5]];portConstraint=eastwest;rotatable=0;" vertex="1" parent="72">
                    <mxGeometry y="120" width="170" height="30" as="geometry"/>
                </mxCell>
                <mxCell id="77" value="投稿日時(datetime)" style="text;strokeColor=none;fillColor=none;align=left;verticalAlign=middle;spacingLeft=4;spacingRight=4;overflow=hidden;points=[[0,0.5],[1,0.5]];portConstraint=eastwest;rotatable=0;" vertex="1" parent="72">
                    <mxGeometry y="150" width="170" height="30" as="geometry"/>
                </mxCell>
                <mxCell id="79" value="カテゴリ" style="text;strokeColor=none;fillColor=none;align=left;verticalAlign=middle;spacingLeft=4;spacingRight=4;overflow=hidden;points=[[0,0.5],[1,0.5]];portConstraint=eastwest;rotatable=0;" vertex="1" parent="72">
                    <mxGeometry y="180" width="170" height="30" as="geometry"/>
                </mxCell>
                <mxCell id="109" value="お気に入り" style="text;strokeColor=none;fillColor=none;align=left;verticalAlign=middle;spacingLeft=4;spacingRight=4;overflow=hidden;points=[[0,0.5],[1,0.5]];portConstraint=eastwest;rotatable=0;" vertex="1" parent="72">
                    <mxGeometry y="210" width="170" height="30" as="geometry"/>
                </mxCell>
                <mxCell id="80" value="カテゴリ" style="swimlane;fontStyle=0;childLayout=stackLayout;horizontal=1;startSize=30;horizontalStack=0;resizeParent=1;resizeParentMax=0;resizeLast=0;collapsible=1;marginBottom=0;" vertex="1" parent="1">
                    <mxGeometry x="1440" y="380" width="140" height="90" as="geometry"/>
                </mxCell>
                <mxCell id="81" value="カテゴリ名(string)" style="text;strokeColor=none;fillColor=none;align=left;verticalAlign=middle;spacingLeft=4;spacingRight=4;overflow=hidden;points=[[0,0.5],[1,0.5]];portConstraint=eastwest;rotatable=0;" vertex="1" parent="80">
                    <mxGeometry y="30" width="140" height="30" as="geometry"/>
                </mxCell>
                <mxCell id="82" value="カテゴリ説明(string)" style="text;strokeColor=none;fillColor=none;align=left;verticalAlign=middle;spacingLeft=4;spacingRight=4;overflow=hidden;points=[[0,0.5],[1,0.5]];portConstraint=eastwest;rotatable=0;" vertex="1" parent="80">
                    <mxGeometry y="60" width="140" height="30" as="geometry"/>
                </mxCell>
                <mxCell id="86" value="1" style="text;html=1;strokeColor=none;fillColor=none;align=center;verticalAlign=middle;whiteSpace=wrap;rounded=0;" vertex="1" parent="1">
                    <mxGeometry x="1290" y="240" width="40" height="30" as="geometry"/>
                </mxCell>
                <mxCell id="87" value="1..多" style="text;html=1;strokeColor=none;fillColor=none;align=center;verticalAlign=middle;whiteSpace=wrap;rounded=0;" vertex="1" parent="1">
                    <mxGeometry x="1330" y="220" width="40" height="30" as="geometry"/>
                </mxCell>
                <mxCell id="91" value="0" style="text;html=1;strokeColor=none;fillColor=none;align=center;verticalAlign=middle;whiteSpace=wrap;rounded=0;" vertex="1" parent="1">
                    <mxGeometry x="1290" y="335" width="40" height="30" as="geometry"/>
                </mxCell>
                <mxCell id="92" value="1..多" style="text;html=1;strokeColor=none;fillColor=none;align=center;verticalAlign=middle;whiteSpace=wrap;rounded=0;" vertex="1" parent="1">
                    <mxGeometry x="1400" y="380" width="40" height="30" as="geometry"/>
                </mxCell>
                <mxCell id="95" value="0" style="text;html=1;strokeColor=none;fillColor=none;align=center;verticalAlign=middle;whiteSpace=wrap;rounded=0;" vertex="1" parent="1">
                    <mxGeometry x="1290" y="530" width="40" height="30" as="geometry"/>
                </mxCell>
                <mxCell id="96" value="1..多" style="text;html=1;strokeColor=none;fillColor=none;align=center;verticalAlign=middle;whiteSpace=wrap;rounded=0;" vertex="1" parent="1">
                    <mxGeometry x="1400" y="460" width="40" height="30" as="geometry"/>
                </mxCell>
                <mxCell id="99" style="edgeStyle=none;html=1;entryX=0;entryY=0.5;entryDx=0;entryDy=0;startArrow=diamondThin;startFill=0;endArrow=open;endFill=0;" edge="1" parent="1" source="48" target="61">
                    <mxGeometry relative="1" as="geometry"/>
                </mxCell>
                <mxCell id="100" style="edgeStyle=none;html=1;entryX=0;entryY=0.5;entryDx=0;entryDy=0;startArrow=diamondThin;startFill=0;endArrow=open;endFill=0;" edge="1" parent="1" source="48" target="75">
                    <mxGeometry relative="1" as="geometry"/>
                </mxCell>
                <mxCell id="101" value="1" style="text;html=1;strokeColor=none;fillColor=none;align=center;verticalAlign=middle;whiteSpace=wrap;rounded=0;" vertex="1" parent="1">
                    <mxGeometry x="1000" y="330" width="40" height="30" as="geometry"/>
                </mxCell>
                <mxCell id="102" value="1..多" style="text;html=1;strokeColor=none;fillColor=none;align=center;verticalAlign=middle;whiteSpace=wrap;rounded=0;" vertex="1" parent="1">
                    <mxGeometry x="1090" y="280" width="40" height="30" as="geometry"/>
                </mxCell>
                <mxCell id="103" value="1" style="text;html=1;strokeColor=none;fillColor=none;align=center;verticalAlign=middle;whiteSpace=wrap;rounded=0;" vertex="1" parent="1">
                    <mxGeometry x="1000" y="475" width="40" height="30" as="geometry"/>
                </mxCell>
                <mxCell id="104" value="1..多" style="text;html=1;strokeColor=none;fillColor=none;align=center;verticalAlign=middle;whiteSpace=wrap;rounded=0;" vertex="1" parent="1">
                    <mxGeometry x="1090" y="580" width="40" height="30" as="geometry"/>
                </mxCell>
                <mxCell id="105" value="お気に入り" style="swimlane;fontStyle=0;childLayout=stackLayout;horizontal=1;startSize=30;horizontalStack=0;resizeParent=1;resizeParentMax=0;resizeLast=0;collapsible=1;marginBottom=0;" vertex="1" parent="1">
                    <mxGeometry x="1460" y="770" width="140" height="60" as="geometry"/>
                </mxCell>
                <mxCell id="107" value="　" style="text;strokeColor=none;fillColor=none;align=left;verticalAlign=middle;spacingLeft=4;spacingRight=4;overflow=hidden;points=[[0,0.5],[1,0.5]];portConstraint=eastwest;rotatable=0;" vertex="1" parent="105">
                    <mxGeometry y="30" width="140" height="30" as="geometry"/>
                </mxCell>
                <mxCell id="108" style="edgeStyle=none;html=1;entryX=0;entryY=0.5;entryDx=0;entryDy=0;startArrow=diamondThin;startFill=0;endArrow=open;endFill=0;" edge="1" parent="1" source="48" target="105">
                    <mxGeometry relative="1" as="geometry">
                        <Array as="points">
                            <mxPoint x="925" y="800"/>
                        </Array>
                    </mxGeometry>
                </mxCell>
                <mxCell id="113" value="1" style="text;html=1;strokeColor=none;fillColor=none;align=center;verticalAlign=middle;whiteSpace=wrap;rounded=0;" vertex="1" parent="1">
                    <mxGeometry x="1290" y="420" width="40" height="30" as="geometry"/>
                </mxCell>
                <mxCell id="114" value="1" style="text;html=1;strokeColor=none;fillColor=none;align=center;verticalAlign=middle;whiteSpace=wrap;rounded=0;" vertex="1" parent="1">
                    <mxGeometry x="1510" y="740" width="40" height="30" as="geometry"/>
                </mxCell>
                <mxCell id="116" value="1" style="text;html=1;strokeColor=none;fillColor=none;align=center;verticalAlign=middle;whiteSpace=wrap;rounded=0;" vertex="1" parent="1">
                    <mxGeometry x="1290" y="670" width="40" height="30" as="geometry"/>
                </mxCell>
                <mxCell id="117" value="1" style="text;html=1;strokeColor=none;fillColor=none;align=center;verticalAlign=middle;whiteSpace=wrap;rounded=0;" vertex="1" parent="1">
                    <mxGeometry x="1460" y="740" width="40" height="30" as="geometry"/>
                </mxCell>
                <mxCell id="118" value="1" style="text;html=1;strokeColor=none;fillColor=none;align=center;verticalAlign=middle;whiteSpace=wrap;rounded=0;" vertex="1" parent="1">
                    <mxGeometry x="920" y="480" width="40" height="30" as="geometry"/>
                </mxCell>
                <mxCell id="119" value="多" style="text;html=1;strokeColor=none;fillColor=none;align=center;verticalAlign=middle;whiteSpace=wrap;rounded=0;" vertex="1" parent="1">
                    <mxGeometry x="1417.5" y="770" width="40" height="30" as="geometry"/>
                </mxCell>
            </root>
        </mxGraphModel>
    </diagram>
</mxfile>